<svg xmlns="http://www.w3.org/2000/svg" viewBox="8.23 9.14 318.84 53.39"><g transform="scale(0.36571)" fill="none" stroke="#09173b" stroke-width="5" stroke-linecap="butt"><path d="M60 27.5L60 113.5"></path><path d="M60 122.5L60 168.5"></path><path d="M 65.45 48.43 A 35 35 0 1 1 54.55 48.43"></path></g><path d="M71.71 23.44L71.71 23.44L71.71 37.18Q71.71 37.96 71.87 38.36Q72.04 38.77 72.50 38.90Q72.97 39.04 73.90 39.04L73.90 39.04L76.45 39.04Q78.40 39.04 79.63 37.90Q80.86 36.76 81.25 34.87L81.25 34.87Q81.25 34.84 81.25 34.84L81.25 34.84Q81.28 34.78 81.43 34.78L81.43 34.78Q81.58 34.81 81.58 34.90L81.58 34.90Q81.49 35.77 81.40 37.00Q81.31 38.23 81.31 39.28L81.31 39.28Q81.31 39.73 80.86 39.73L80.86 39.73L66.88 39.73Q66.82 39.73 66.82 39.55Q66.82 39.37 66.88 39.37L66.88 39.37Q67.93 39.37 68.45 39.22Q68.98 39.07 69.16 38.62Q69.34 38.17 69.34 37.30L69.34 37.30L69.34 23.41Q69.34 22.54 69.16 22.10Q68.98 21.67 68.45 21.50Q67.93 21.34 66.88 21.34L66.88 21.34Q66.82 21.34 66.82 21.16Q66.82 20.98 66.88 20.98L66.88 20.98Q67.60 20.98 68.54 21.02Q69.49 21.07 70.51 21.07L70.51 21.07Q71.59 21.07 72.50 21.02Q73.42 20.98 74.14 20.98L74.14 20.98Q74.20 20.98 74.20 21.16Q74.20 21.34 74.14 21.34L74.14 21.34Q73.09 21.34 72.58 21.50Q72.07 21.67 71.89 22.12Q71.71 22.57 71.71 23.44Z M94.27 38.44L91.18 39.91Q91.06 39.97 90.91 39.97L90.91 39.97Q90.46 39.97 90.07 39.28L90.07 39.28Q89.77 38.83 89.68 38.11L89.68 38.11L88.00 39.04Q87.13 39.49 86.45 39.71Q85.78 39.94 85.15 39.94L85.15 39.94Q84.19 39.94 83.68 39.43Q83.17 38.92 83.17 38.14L83.17 38.14Q83.17 37.21 83.89 36.73Q84.61 36.25 86.20 35.71L86.20 35.71L89.65 34.51L89.65 32.08Q89.65 30.76 89.42 29.98Q89.20 29.20 88.79 28.85Q88.39 28.51 87.85 28.51L87.85 28.51Q87.19 28.51 86.74 28.84Q86.29 29.17 86.06 29.72Q85.84 30.28 85.75 30.94L85.75 30.94Q85.69 31.51 85.40 31.88Q85.12 32.26 84.43 32.26L84.43 32.26Q83.89 32.26 83.59 31.99Q83.29 31.72 83.29 31.24L83.29 31.24Q83.29 30.67 83.86 30.08Q84.43 29.50 85.30 28.99Q86.17 28.48 87.11 28.18Q88.06 27.88 88.87 27.88L88.87 27.88Q90.07 27.88 90.88 28.67Q91.69 29.47 91.69 31.18L91.69 31.18L91.69 36.49Q91.69 37.48 91.96 37.96Q92.23 38.44 92.83 38.44L92.83 38.44Q93.34 38.44 94.15 38.11L94.15 38.11Q94.18 38.08 94.24 38.11L94.24 38.11Q94.30 38.11 94.36 38.20L94.36 38.20Q94.39 38.32 94.36 38.38L94.36 38.38Q94.33 38.41 94.27 38.44L94.27 38.44ZM88.27 38.41L89.65 37.69Q89.65 37.54 89.65 37.36L89.65 37.36L89.65 34.93L86.98 35.95Q86.26 36.22 85.96 36.55Q85.66 36.88 85.66 37.39L85.66 37.39Q85.66 38.02 86.02 38.38Q86.38 38.74 86.95 38.74L86.95 38.74Q87.25 38.74 87.58 38.65Q87.91 38.56 88.27 38.41L88.27 38.41Z M97.18 29.86L97.18 29.86Q97.18 30.58 97.55 31.10Q97.93 31.63 98.53 32.02Q99.13 32.41 99.79 32.80L99.79 32.80Q100.57 33.19 101.27 33.62Q101.98 34.06 102.43 34.69Q102.88 35.32 102.88 36.34L102.88 36.34Q102.88 37.30 102.40 38.15Q101.92 39.01 100.96 39.53Q100.00 40.06 98.56 40.06L98.56 40.06Q97.84 40.06 97.12 39.88Q96.40 39.70 95.62 39.19L95.62 39.19Q95.56 39.13 95.50 39.04Q95.44 38.95 95.44 38.83L95.44 38.83L95.38 36.31Q95.38 36.22 95.54 36.20Q95.71 36.19 95.74 36.25L95.74 36.25Q96.10 37.24 96.65 37.97Q97.21 38.71 97.91 39.10Q98.62 39.49 99.43 39.49L99.43 39.49Q100.27 39.49 100.75 39.04Q101.23 38.59 101.20 37.69L101.20 37.69Q101.20 36.85 100.79 36.29Q100.39 35.74 99.79 35.36Q99.19 34.99 98.53 34.66L98.53 34.66Q97.81 34.30 97.12 33.88Q96.43 33.46 95.99 32.83Q95.56 32.20 95.56 31.18L95.56 31.18Q95.56 29.98 96.17 29.23Q96.79 28.48 97.75 28.13Q98.71 27.79 99.73 27.79L99.73 27.79Q100.33 27.79 100.87 27.89Q101.41 28.00 102.01 28.24L102.01 28.24Q102.28 28.36 102.28 28.57L102.28 28.57Q102.28 29.11 102.25 29.68Q102.22 30.25 102.22 30.91L102.22 30.91Q102.22 31.00 102.04 31.00Q101.86 31.00 101.86 30.91L101.86 30.91Q101.86 30.28 101.38 29.71Q100.90 29.14 100.18 28.76Q99.46 28.39 98.68 28.39L98.68 28.39Q98.05 28.39 97.61 28.72Q97.18 29.05 97.18 29.86Z M106.84 29.86L106.84 29.86Q106.84 30.58 107.21 31.10Q107.59 31.63 108.19 32.02Q108.79 32.41 109.45 32.80L109.45 32.80Q110.23 33.19 110.93 33.62Q111.64 34.06 112.09 34.69Q112.54 35.32 112.54 36.34L112.54 36.34Q112.54 37.30 112.06 38.15Q111.58 39.01 110.62 39.53Q109.66 40.06 108.22 40.06L108.22 40.06Q107.50 40.06 106.78 39.88Q106.06 39.70 105.28 39.19L105.28 39.19Q105.22 39.13 105.16 39.04Q105.10 38.95 105.10 38.83L105.10 38.83L105.04 36.31Q105.04 36.22 105.20 36.20Q105.37 36.19 105.40 36.25L105.40 36.25Q105.76 37.24 106.31 37.97Q106.87 38.71 107.57 39.10Q108.28 39.49 109.09 39.49L109.09 39.49Q109.93 39.49 110.41 39.04Q110.89 38.59 110.86 37.69L110.86 37.69Q110.86 36.85 110.45 36.29Q110.05 35.74 109.45 35.36Q108.85 34.99 108.19 34.66L108.19 34.66Q107.47 34.30 106.78 33.88Q106.09 33.46 105.65 32.83Q105.22 32.20 105.22 31.18L105.22 31.18Q105.22 29.98 105.83 29.23Q106.45 28.48 107.41 28.13Q108.37 27.79 109.39 27.79L109.39 27.79Q109.99 27.79 110.53 27.89Q111.07 28.00 111.67 28.24L111.67 28.24Q111.94 28.36 111.94 28.57L111.94 28.57Q111.94 29.11 111.91 29.68Q111.88 30.25 111.88 30.91L111.88 30.91Q111.88 31.00 111.70 31.00Q111.52 31.00 111.52 30.91L111.52 30.91Q111.52 30.28 111.04 29.71Q110.56 29.14 109.84 28.76Q109.12 28.39 108.34 28.39L108.34 28.39Q107.71 28.39 107.27 28.72Q106.84 29.05 106.84 29.86Z M120.31 40.09L120.31 40.09Q118.45 40.09 117.14 39.26Q115.84 38.44 115.19 37.12Q114.55 35.80 114.55 34.33L114.55 34.33Q114.55 32.50 115.42 31.04Q116.29 29.59 117.77 28.73Q119.26 27.88 121.12 27.88L121.12 27.88Q122.83 27.88 123.74 28.67Q124.66 29.47 124.66 30.85L124.66 30.85Q124.66 31.18 124.60 31.39Q124.54 31.60 124.33 31.60L124.33 31.60L122.89 31.60L116.98 31.66Q116.86 32.32 116.86 33.13L116.86 33.13Q116.86 34.81 117.40 36.11Q117.94 37.42 118.99 38.15Q120.04 38.89 121.51 38.89L121.51 38.89Q122.29 38.89 123.10 38.66Q123.91 38.44 124.60 37.96L124.60 37.96Q124.60 37.96 124.63 37.93L124.63 37.93Q124.69 37.93 124.78 38.02L124.78 38.02Q124.87 38.17 124.81 38.26L124.81 38.26Q123.73 39.25 122.62 39.67Q121.51 40.09 120.31 40.09ZM117.07 31.18L122.23 31.06Q122.20 30.01 121.75 29.32L121.75 29.32Q121.18 28.48 120.07 28.48L120.07 28.48Q118.54 28.48 117.70 29.74L117.70 29.74Q117.28 30.37 117.07 31.18L117.07 31.18Z  M135.73 37.30L135.73 37.30L135.73 23.41Q135.73 22.54 135.55 22.10Q135.37 21.67 134.84 21.50Q134.32 21.34 133.30 21.34L133.30 21.34Q133.21 21.34 133.21 21.16Q133.21 20.98 133.30 20.98L133.30 20.98Q134.05 20.98 134.96 21.02Q135.88 21.07 136.90 21.07L136.90 21.07Q137.98 21.07 138.89 21.02Q139.81 20.98 140.53 20.98L140.53 20.98Q140.59 20.98 140.59 21.16Q140.59 21.34 140.53 21.34L140.53 21.34Q139.48 21.34 138.97 21.52Q138.46 21.70 138.28 22.15Q138.10 22.60 138.10 23.47L138.10 23.47L138.10 29.83L144.25 23.62Q145.39 22.48 145.18 21.91Q144.97 21.34 143.44 21.34L143.44 21.34Q143.35 21.34 143.35 21.16Q143.35 20.98 143.44 20.98L143.44 20.98Q144.19 20.98 144.97 21.02Q145.75 21.07 147.04 21.07L147.04 21.07Q148.30 21.07 149.03 21.02Q149.77 20.98 150.43 20.98L150.43 20.98Q150.52 20.98 150.52 21.16Q150.52 21.34 150.43 21.34L150.43 21.34Q149.26 21.34 147.77 21.92Q146.29 22.51 145.00 23.80L145.00 23.80L140.68 28.09L145.03 33.76Q146.32 35.47 147.22 36.55Q148.12 37.63 148.73 38.21Q149.35 38.80 149.81 39.05Q150.28 39.31 150.71 39.34Q151.15 39.37 151.69 39.37L151.69 39.37Q151.78 39.37 151.78 39.55Q151.78 39.73 151.69 39.73L151.69 39.73L148.33 39.73Q147.67 39.73 147.31 39.74Q146.95 39.76 146.71 39.61Q146.47 39.46 146.11 39.02Q145.75 38.59 145.12 37.72Q144.49 36.85 143.35 35.38L143.35 35.38L138.97 29.77L138.10 30.61L138.10 37.30Q138.10 38.17 138.26 38.62Q138.43 39.07 138.95 39.22Q139.48 39.37 140.53 39.37L140.53 39.37Q140.62 39.37 140.62 39.55Q140.62 39.73 140.53 39.73L140.53 39.73Q139.78 39.73 138.88 39.70Q137.98 39.67 136.90 39.67L136.90 39.67Q135.88 39.67 134.93 39.70Q133.99 39.73 133.24 39.73L133.24 39.73Q133.18 39.73 133.18 39.55Q133.18 39.37 133.24 39.37L133.24 39.37Q134.29 39.37 134.83 39.22Q135.37 39.07 135.55 38.62Q135.73 38.17 135.73 37.30Z M152.65 39.73L152.65 39.73Q152.59 39.73 152.59 39.55Q152.59 39.37 152.65 39.37L152.65 39.37Q153.76 39.37 154.10 38.96Q154.45 38.56 154.45 37.30L154.45 37.30L154.48 21.88Q154.48 20.83 154.28 20.35Q154.09 19.87 153.55 19.87L153.55 19.87Q153.10 19.87 152.26 20.26L152.26 20.26Q152.23 20.29 152.20 20.26L152.20 20.26Q152.11 20.26 152.08 20.14L152.08 20.14Q152.02 19.99 152.05 19.96L152.05 19.96Q152.05 19.93 152.08 19.93L152.08 19.93L156.10 18.01Q156.16 17.98 156.22 17.98L156.22 17.98Q156.31 17.98 156.44 18.07Q156.58 18.16 156.58 18.28L156.58 18.28L156.58 37.30Q156.58 38.53 156.91 38.95Q157.24 39.37 158.35 39.37L158.35 39.37Q158.47 39.37 158.47 39.55Q158.47 39.73 158.35 39.73L158.35 39.73Q157.81 39.73 157.07 39.70Q156.34 39.67 155.50 39.67L155.50 39.67Q154.69 39.67 153.95 39.70Q153.22 39.73 152.65 39.73Z M164.59 40.00L164.59 40.00Q163.06 40.00 162.17 39.02Q161.29 38.05 161.29 36.31L161.29 36.31L161.29 31.78Q161.29 30.64 161.09 30.13Q160.90 29.62 160.39 29.62L160.39 29.62Q160.00 29.62 159.46 29.89L159.46 29.89Q159.43 29.92 159.40 29.89L159.40 29.89Q159.31 29.89 159.28 29.77L159.28 29.77Q159.22 29.65 159.25 29.59L159.25 29.59Q159.28 29.56 159.31 29.56L159.31 29.56L162.85 27.91Q162.91 27.88 162.97 27.88L162.97 27.88Q163.09 27.88 163.21 27.97Q163.33 28.06 163.33 28.18L163.33 28.18L163.33 35.17Q163.33 36.91 163.94 37.73Q164.56 38.56 165.82 38.56L165.82 38.56Q166.90 38.56 167.98 37.93L167.98 37.93Q168.64 37.51 169.21 36.94L169.21 36.94L169.21 31.78Q169.21 30.64 169.00 30.13Q168.79 29.62 168.31 29.62L168.31 29.62Q167.92 29.62 167.35 29.89L167.35 29.89Q167.32 29.92 167.29 29.89L167.29 29.89Q167.23 29.89 167.20 29.77L167.20 29.77Q167.14 29.65 167.17 29.59L167.17 29.59Q167.20 29.56 167.23 29.56L167.23 29.56L170.77 27.91Q170.83 27.88 170.89 27.88L170.89 27.88Q170.98 27.88 171.11 27.97Q171.25 28.06 171.25 28.18L171.25 28.18L171.25 36.43Q171.25 37.45 171.47 37.90Q171.70 38.35 172.24 38.35L172.24 38.35Q172.51 38.35 172.85 38.24Q173.20 38.14 173.71 37.93L173.71 37.93Q173.74 37.90 173.80 37.93L173.80 37.93Q173.86 37.93 173.92 38.02L173.92 38.02Q173.98 38.20 173.89 38.26L173.89 38.26L170.17 40.03Q170.11 40.06 170.02 40.06L170.02 40.06Q169.78 40.06 169.51 39.37L169.51 39.37Q169.21 38.71 169.21 37.51L169.21 37.51Q168.31 38.53 167.38 39.13L167.38 39.13Q166.06 40.00 164.59 40.00ZM163.75 25.54L163.75 25.54Q163.12 25.54 162.74 25.18Q162.37 24.82 162.37 24.16L162.37 24.16Q162.37 23.53 162.74 23.18Q163.12 22.84 163.75 22.84L163.75 22.84Q164.38 22.84 164.74 23.18Q165.10 23.53 165.10 24.16L165.10 24.16Q165.10 25.54 163.75 25.54ZM169.00 25.54L169.00 25.54Q168.37 25.54 167.99 25.18Q167.62 24.82 167.62 24.16L167.62 24.16Q167.62 23.53 167.99 23.18Q168.37 22.84 169.00 22.84L169.00 22.84Q170.35 22.84 170.35 24.16L170.35 24.16Q170.35 25.54 169.00 25.54Z M186.79 28.15L186.79 28.15Q186.85 28.15 186.85 28.33Q186.85 28.51 186.79 28.51L186.79 28.51Q186.01 28.51 185.44 29.03Q184.87 29.56 184.33 30.85L184.33 30.85L180.61 39.70Q180.55 39.85 180.28 39.85Q180.01 39.85 179.95 39.70L179.95 39.70L175.60 30.64Q174.97 29.29 174.55 28.90Q174.13 28.51 173.53 28.51L173.53 28.51Q173.44 28.51 173.44 28.33Q173.44 28.15 173.53 28.15L173.53 28.15Q173.98 28.15 174.55 28.18Q175.12 28.21 175.84 28.21L175.84 28.21Q176.95 28.21 177.73 28.18Q178.51 28.15 179.17 28.15L179.17 28.15Q179.26 28.15 179.26 28.33Q179.26 28.51 179.17 28.51L179.17 28.51Q178.24 28.51 177.73 28.72L177.73 28.72Q177.52 28.81 177.46 28.96L177.46 28.96Q177.31 29.20 177.52 29.68L177.52 29.68L181.09 36.97L183.67 30.76Q184.12 29.62 183.61 29.06Q183.10 28.51 181.63 28.51L181.63 28.51Q181.57 28.51 181.57 28.33Q181.57 28.15 181.63 28.15L181.63 28.15Q182.35 28.15 182.99 28.18Q183.64 28.21 184.66 28.21L184.66 28.21Q185.32 28.21 185.75 28.18Q186.19 28.15 186.79 28.15Z M193.24 40.09L193.24 40.09Q191.38 40.09 190.07 39.26Q188.77 38.44 188.12 37.12Q187.48 35.80 187.48 34.33L187.48 34.33Q187.48 32.50 188.35 31.04Q189.22 29.59 190.70 28.73Q192.19 27.88 194.05 27.88L194.05 27.88Q195.76 27.88 196.67 28.67Q197.59 29.47 197.59 30.85L197.59 30.85Q197.59 31.18 197.53 31.39Q197.47 31.60 197.26 31.60L197.26 31.60L195.82 31.60L189.91 31.66Q189.79 32.32 189.79 33.13L189.79 33.13Q189.79 34.81 190.33 36.11Q190.87 37.42 191.92 38.15Q192.97 38.89 194.44 38.89L194.44 38.89Q195.22 38.89 196.03 38.66Q196.84 38.44 197.53 37.96L197.53 37.96Q197.53 37.96 197.56 37.93L197.56 37.93Q197.62 37.93 197.71 38.02L197.71 38.02Q197.80 38.17 197.74 38.26L197.74 38.26Q196.66 39.25 195.55 39.67Q194.44 40.09 193.24 40.09ZM190.00 31.18L195.16 31.06Q195.13 30.01 194.68 29.32L194.68 29.32Q194.11 28.48 193.00 28.48L193.00 28.48Q191.47 28.48 190.63 29.74L190.63 29.74Q190.21 30.37 190.00 31.18L190.00 31.18Z M199.75 39.73L199.75 39.73Q199.66 39.73 199.66 39.55Q199.66 39.37 199.75 39.37L199.75 39.37Q200.83 39.37 201.17 38.96Q201.52 38.56 201.52 37.30L201.52 37.30L201.52 31.45Q201.52 30.49 201.29 30.04Q201.07 29.59 200.53 29.59L200.53 29.59Q200.23 29.59 199.84 29.69Q199.45 29.80 198.94 30.01L198.94 30.01Q198.88 30.04 198.85 30.01L198.85 30.01Q198.79 30.01 198.76 29.89L198.76 29.89Q198.70 29.74 198.79 29.68L198.79 29.68L202.48 27.91Q202.60 27.88 202.66 27.88L202.66 27.88Q202.93 27.88 203.26 28.54L203.26 28.54Q203.56 29.17 203.59 30.28L203.59 30.28Q204.19 29.62 204.64 29.17L204.64 29.17Q205.39 28.45 205.93 28.16Q206.47 27.88 206.95 27.88L206.95 27.88Q207.58 27.88 208.21 28.27Q208.84 28.66 208.84 29.26L208.84 29.26Q208.84 29.71 208.54 30.02Q208.24 30.34 207.73 30.34L207.73 30.34Q207.25 30.34 206.96 30.07Q206.68 29.80 206.39 29.54Q206.11 29.29 205.63 29.29L205.63 29.29Q205.39 29.29 205.09 29.44Q204.79 29.59 204.31 30.07L204.31 30.07Q204.01 30.37 203.59 30.85L203.59 30.85L203.59 37.30Q203.59 38.14 203.81 38.59Q204.04 39.04 204.65 39.20Q205.27 39.37 206.44 39.37L206.44 39.37Q206.53 39.37 206.53 39.55Q206.53 39.73 206.44 39.73L206.44 39.73Q205.66 39.73 204.67 39.70Q203.68 39.67 202.57 39.67L202.57 39.67Q201.76 39.67 201.02 39.70Q200.29 39.73 199.75 39.73Z" fill="#09173b"></path><path d="M71.10 61.35L71.10 61.35Q69.94 61.35 69.21 60.75Q68.47 60.14 68.30 59.14L68.30 59.14L69.25 58.91Q69.37 59.68 69.88 60.08Q70.39 60.48 71.13 60.48L71.13 60.48Q71.56 60.48 71.90 60.32Q72.24 60.15 72.44 59.85Q72.64 59.55 72.64 59.16L72.64 59.16Q72.64 58.75 72.42 58.49Q72.20 58.23 71.81 58.03Q71.42 57.83 70.90 57.63L70.90 57.63Q70.26 57.39 69.78 57.10Q69.30 56.82 69.04 56.42Q68.78 56.02 68.78 55.43L68.78 55.43Q68.78 54.85 69.06 54.40Q69.35 53.95 69.87 53.69Q70.38 53.43 71.06 53.43L71.06 53.43Q71.79 53.43 72.35 53.76Q72.91 54.09 73.25 54.74L73.25 54.74L72.48 55.21Q72.23 54.76 71.87 54.52Q71.50 54.29 71.03 54.29L71.03 54.29Q70.66 54.29 70.37 54.43Q70.07 54.57 69.91 54.83Q69.74 55.08 69.74 55.41L69.74 55.41Q69.74 55.76 69.94 56.01Q70.14 56.26 70.52 56.44Q70.89 56.63 71.42 56.83L71.42 56.83Q72.09 57.08 72.57 57.38Q73.06 57.68 73.33 58.09Q73.59 58.50 73.59 59.11L73.59 59.11Q73.59 59.76 73.28 60.26Q72.96 60.77 72.40 61.06Q71.83 61.35 71.10 61.35Z M79.94 61.36L79.94 61.36Q78.89 61.36 78.09 60.87Q77.29 60.37 76.85 59.48Q76.40 58.59 76.40 57.40L76.40 57.40Q76.40 56.20 76.85 55.31Q77.29 54.42 78.09 53.93Q78.89 53.43 79.94 53.43L79.94 53.43Q81.02 53.43 81.82 53.93Q82.63 54.42 83.07 55.31Q83.52 56.20 83.52 57.40L83.52 57.40Q83.52 58.59 83.07 59.48Q82.61 60.37 81.81 60.87Q81.01 61.36 79.94 61.36ZM79.94 60.44L79.94 60.44Q80.74 60.44 81.32 60.06Q81.90 59.69 82.22 59.01Q82.54 58.33 82.54 57.40L82.54 57.40Q82.54 56.47 82.22 55.78Q81.90 55.10 81.32 54.73Q80.74 54.35 79.94 54.35L79.94 54.35Q79.16 54.35 78.58 54.72Q77.99 55.09 77.68 55.77Q77.37 56.46 77.37 57.40L77.37 57.40Q77.37 58.34 77.68 59.02Q77.99 59.70 78.58 60.07Q79.16 60.44 79.94 60.44Z M87.67 61.23L86.71 61.23L86.71 53.56L88.14 53.56L90.46 59.40L92.78 53.56L94.20 53.56L94.20 61.23L93.23 61.23L93.23 54.88L90.93 60.58L89.98 60.58L87.67 54.88L87.67 61.23Z M98.08 61.23L97.01 61.23L99.94 53.56L100.71 53.56L103.64 61.23L102.58 61.23L101.93 59.43L98.73 59.43L98.08 61.23ZM99.04 58.56L101.62 58.56L100.34 54.95L99.04 58.56Z M108.27 61.23L107.29 61.23L107.29 54.43L104.71 54.43L104.71 53.56L110.83 53.56L110.83 54.43L108.27 54.43L108.27 61.23Z M114.60 61.23L113.63 61.23L113.63 53.56L114.60 53.56L114.60 61.23Z M121.32 61.36L121.32 61.36Q120.27 61.36 119.47 60.87Q118.67 60.37 118.23 59.47Q117.78 58.58 117.78 57.39L117.78 57.39Q117.78 56.20 118.23 55.31Q118.67 54.42 119.47 53.93Q120.27 53.43 121.32 53.43L121.32 53.43Q122.48 53.43 123.33 54.00Q124.17 54.57 124.55 55.59L124.55 55.59L123.64 55.93Q123.36 55.18 122.76 54.77Q122.17 54.35 121.32 54.35L121.32 54.35Q120.54 54.35 119.96 54.73Q119.38 55.10 119.06 55.78Q118.75 56.46 118.75 57.39L118.75 57.39Q118.75 58.33 119.06 59.01Q119.38 59.69 119.96 60.06Q120.54 60.44 121.32 60.44L121.32 60.44Q122.17 60.44 122.76 60.02Q123.36 59.60 123.64 58.86L123.64 58.86L124.55 59.19Q124.17 60.20 123.33 60.78Q122.48 61.36 121.32 61.36Z  M134.94 61.23L132.22 61.23L132.22 53.56L134.68 53.56Q135.77 53.56 136.39 54.07Q137.01 54.57 137.01 55.48L137.01 55.48Q137.01 56.05 136.76 56.48Q136.50 56.91 136.04 57.13L136.04 57.13Q136.71 57.31 137.06 57.81Q137.41 58.30 137.41 59.06L137.41 59.06Q137.41 60.10 136.76 60.66Q136.12 61.23 134.94 61.23L134.94 61.23ZM133.19 57.70L133.19 60.34L134.88 60.34Q136.45 60.34 136.45 59.02L136.45 59.02Q136.45 58.39 136.09 58.04Q135.73 57.70 135.09 57.70L135.09 57.70L133.19 57.70ZM133.19 54.45L133.19 56.83L134.83 56.83Q135.38 56.83 135.72 56.50Q136.05 56.18 136.05 55.62L136.05 55.62Q136.05 55.07 135.69 54.76Q135.33 54.45 134.68 54.45L134.68 54.45L133.19 54.45Z M141.56 61.23L140.60 61.23L140.60 53.56L142.88 53.56Q143.76 53.56 144.33 53.82Q144.89 54.08 145.16 54.56Q145.44 55.05 145.44 55.72L145.44 55.72Q145.44 56.68 144.89 57.23L144.89 57.23Q144.52 57.60 143.95 57.76L143.95 57.76L146.00 61.23L144.89 61.23L142.96 57.90Q142.93 57.90 142.90 57.90L142.90 57.90L141.56 57.90L141.56 61.23ZM141.56 54.43L141.56 57.04L142.78 57.04Q143.29 57.04 143.66 56.91Q144.04 56.77 144.25 56.49Q144.47 56.20 144.47 55.73L144.47 55.73Q144.47 55.25 144.25 54.96Q144.04 54.68 143.66 54.56Q143.28 54.43 142.78 54.43L142.78 54.43L141.56 54.43Z M153.92 61.23L148.87 61.23L148.87 53.56L153.92 53.56L153.92 54.43L149.84 54.43L149.84 56.88L153.54 56.88L153.54 57.75L149.84 57.75L149.84 60.36L153.92 60.36L153.92 61.23Z M157.45 61.23L156.38 61.23L159.31 53.56L160.08 53.56L163.00 61.23L161.95 61.23L161.30 59.43L158.10 59.43L157.45 61.23ZM158.41 58.56L160.99 58.56L159.70 54.95L158.41 58.56Z M167.63 61.23L166.66 61.23L166.66 54.43L164.08 54.43L164.08 53.56L170.20 53.56L170.20 54.43L167.63 54.43L167.63 61.23Z M173.97 61.23L173.00 61.23L173.00 53.56L173.97 53.56L173.97 56.85L177.75 56.85L177.75 53.56L178.72 53.56L178.72 61.23L177.75 61.23L177.75 57.75L173.97 57.75L173.97 61.23Z M184.82 61.23L183.85 61.23L181.60 53.56L182.62 53.56L184.39 59.77L186.14 53.98L187.10 53.98L188.85 59.77L190.61 53.56L191.63 53.56L189.38 61.23L188.42 61.23L186.62 55.39L184.82 61.23Z M197.50 61.36L197.50 61.36Q196.44 61.36 195.65 60.87Q194.85 60.37 194.40 59.48Q193.96 58.59 193.96 57.40L193.96 57.40Q193.96 56.20 194.40 55.31Q194.85 54.42 195.65 53.93Q196.44 53.43 197.50 53.43L197.50 53.43Q198.58 53.43 199.38 53.93Q200.18 54.42 200.63 55.31Q201.07 56.20 201.07 57.40L201.07 57.40Q201.07 58.59 200.62 59.48Q200.17 60.37 199.37 60.87Q198.57 61.36 197.50 61.36ZM197.50 60.44L197.50 60.44Q198.30 60.44 198.88 60.06Q199.46 59.69 199.78 59.01Q200.09 58.33 200.09 57.40L200.09 57.40Q200.09 56.47 199.78 55.78Q199.46 55.10 198.88 54.73Q198.30 54.35 197.50 54.35L197.50 54.35Q196.72 54.35 196.14 54.72Q195.55 55.09 195.24 55.77Q194.93 56.46 194.93 57.40L194.93 57.40Q194.93 58.34 195.24 59.02Q195.55 59.70 196.14 60.07Q196.72 60.44 197.50 60.44Z M205.23 61.23L204.26 61.23L204.26 53.56L206.55 53.56Q207.43 53.56 207.99 53.82Q208.55 54.08 208.83 54.56Q209.10 55.05 209.10 55.72L209.10 55.72Q209.10 56.68 208.55 57.23L208.55 57.23Q208.19 57.60 207.62 57.76L207.62 57.76L209.67 61.23L208.55 61.23L206.63 57.90Q206.60 57.90 206.56 57.90L206.56 57.90L205.23 57.90L205.23 61.23ZM205.23 54.43L205.23 57.04L206.45 57.04Q206.96 57.04 207.33 56.91Q207.71 56.77 207.92 56.49Q208.14 56.20 208.14 55.73L208.14 55.73Q208.14 55.25 207.92 54.96Q207.71 54.68 207.33 54.56Q206.95 54.43 206.45 54.43L206.45 54.43L205.23 54.43Z M213.50 61.23L212.54 61.23L212.54 53.56L213.50 53.56L213.50 57.34L217.11 53.56L218.41 53.56L215.48 56.54L218.43 61.23L217.30 61.23L214.79 57.26L213.50 58.58L213.50 61.23Z  M227.32 58.03L226.22 58.03L226.22 56.75L227.32 56.75L227.32 58.03Z  M236.91 61.23L235.94 61.23L235.94 53.56L236.91 53.56L236.91 61.23Z M241.38 61.23L240.41 61.23L240.41 53.56L245.44 53.56L245.44 54.43L241.38 54.43L241.38 56.88L244.90 56.88L244.90 57.75L241.38 57.75L241.38 61.23Z M250.42 61.35L250.42 61.35Q249.27 61.35 248.53 60.75Q247.79 60.14 247.63 59.14L247.63 59.14L248.57 58.91Q248.69 59.68 249.20 60.08Q249.72 60.48 250.45 60.48L250.45 60.48Q250.88 60.48 251.22 60.32Q251.56 60.15 251.76 59.85Q251.96 59.55 251.96 59.16L251.96 59.16Q251.96 58.75 251.74 58.49Q251.52 58.23 251.13 58.03Q250.74 57.83 250.22 57.63L250.22 57.63Q249.58 57.39 249.11 57.10Q248.63 56.82 248.36 56.42Q248.10 56.02 248.10 55.43L248.10 55.43Q248.10 54.85 248.39 54.40Q248.67 53.95 249.19 53.69Q249.71 53.43 250.39 53.43L250.39 53.43Q251.11 53.43 251.67 53.76Q252.24 54.09 252.58 54.74L252.58 54.74L251.81 55.21Q251.55 54.76 251.19 54.52Q250.83 54.29 250.35 54.29L250.35 54.29Q249.98 54.29 249.69 54.43Q249.40 54.57 249.23 54.83Q249.07 55.08 249.07 55.41L249.07 55.41Q249.07 55.76 249.27 56.01Q249.46 56.26 249.84 56.44Q250.21 56.63 250.74 56.83L250.74 56.83Q251.41 57.08 251.89 57.38Q252.38 57.68 252.65 58.09Q252.92 58.50 252.92 59.11L252.92 59.11Q252.92 59.76 252.60 60.26Q252.28 60.77 251.72 61.06Q251.16 61.35 250.42 61.35Z  M263.88 61.36L263.88 61.36Q262.83 61.36 262.03 60.87Q261.23 60.37 260.79 59.47Q260.34 58.58 260.34 57.39L260.34 57.39Q260.34 56.20 260.79 55.31Q261.23 54.42 262.03 53.93Q262.83 53.43 263.88 53.43L263.88 53.43Q265.04 53.43 265.89 54.00Q266.73 54.57 267.11 55.59L267.11 55.59L266.21 55.93Q265.92 55.18 265.33 54.77Q264.73 54.35 263.88 54.35L263.88 54.35Q263.10 54.35 262.52 54.73Q261.94 55.10 261.62 55.78Q261.31 56.46 261.31 57.39L261.31 57.39Q261.31 58.33 261.62 59.01Q261.94 59.69 262.52 60.06Q263.10 60.44 263.88 60.44L263.88 60.44Q264.73 60.44 265.33 60.02Q265.92 59.60 266.21 58.86L266.21 58.86L267.11 59.19Q266.73 60.20 265.89 60.78Q265.04 61.36 263.88 61.36Z M273.39 61.36L273.39 61.36Q272.33 61.36 271.53 60.87Q270.74 60.37 270.29 59.48Q269.85 58.59 269.85 57.40L269.85 57.40Q269.85 56.20 270.29 55.31Q270.74 54.42 271.53 53.93Q272.33 53.43 273.39 53.43L273.39 53.43Q274.47 53.43 275.27 53.93Q276.07 54.42 276.52 55.31Q276.96 56.20 276.96 57.40L276.96 57.40Q276.96 58.59 276.51 59.48Q276.06 60.37 275.26 60.87Q274.46 61.36 273.39 61.36ZM273.39 60.44L273.39 60.44Q274.19 60.44 274.77 60.06Q275.35 59.69 275.67 59.01Q275.98 58.33 275.98 57.40L275.98 57.40Q275.98 56.47 275.67 55.78Q275.35 55.10 274.77 54.73Q274.19 54.35 273.39 54.35L273.39 54.35Q272.61 54.35 272.02 54.72Q271.44 55.09 271.13 55.77Q270.81 56.46 270.81 57.40L270.81 57.40Q270.81 58.34 271.13 59.02Q271.44 59.70 272.02 60.07Q272.61 60.44 273.39 60.44Z M280.20 61.23L279.13 61.23L282.06 53.56L282.83 53.56L285.75 61.23L284.70 61.23L284.05 59.43L280.85 59.43L280.20 61.23ZM281.15 58.56L283.74 58.56L282.45 54.95L281.15 58.56Z M291.46 61.36L291.46 61.36Q290.41 61.36 289.61 60.87Q288.81 60.37 288.36 59.47Q287.92 58.58 287.92 57.39L287.92 57.39Q287.92 56.20 288.36 55.31Q288.81 54.42 289.61 53.93Q290.41 53.43 291.46 53.43L291.46 53.43Q292.62 53.43 293.46 54.00Q294.31 54.57 294.68 55.59L294.68 55.59L293.78 55.93Q293.50 55.18 292.90 54.77Q292.31 54.35 291.46 54.35L291.46 54.35Q290.68 54.35 290.10 54.73Q289.51 55.10 289.20 55.78Q288.89 56.46 288.89 57.39L288.89 57.39Q288.89 58.33 289.20 59.01Q289.51 59.69 290.10 60.06Q290.68 60.44 291.46 60.44L291.46 60.44Q292.31 60.44 292.90 60.02Q293.50 59.60 293.78 58.86L293.78 58.86L294.68 59.19Q294.31 60.20 293.46 60.78Q292.62 61.36 291.46 61.36Z M298.71 61.23L297.74 61.23L297.74 53.56L298.71 53.56L298.71 56.85L302.49 56.85L302.49 53.56L303.46 53.56L303.46 61.23L302.49 61.23L302.49 57.75L298.71 57.75L298.71 61.23Z M307.93 61.23L306.96 61.23L306.96 53.56L307.93 53.56L307.93 61.23Z M312.39 61.23L311.43 61.23L311.43 53.56L312.45 53.56L316.16 59.61L316.16 53.56L317.12 53.56L317.12 61.23L316.08 61.23L312.39 55.17L312.39 61.23Z M323.79 61.36L323.79 61.36Q322.76 61.36 321.97 60.87Q321.18 60.37 320.74 59.47Q320.30 58.58 320.30 57.39Q320.30 56.20 320.75 55.31Q321.19 54.42 321.99 53.93Q322.79 53.43 323.85 53.43L323.85 53.43Q325.00 53.43 325.85 54.00Q326.69 54.57 327.07 55.59L327.07 55.59L326.17 55.93Q325.88 55.18 325.29 54.77Q324.69 54.35 323.85 54.35L323.85 54.35Q323.06 54.35 322.48 54.73Q321.90 55.10 321.58 55.78Q321.27 56.46 321.27 57.39Q321.27 58.33 321.58 59.01Q321.90 59.69 322.48 60.06Q323.06 60.44 323.85 60.44L323.85 60.44Q324.24 60.44 324.66 60.33Q325.08 60.22 325.43 59.94Q325.78 59.67 326.00 59.18L326.00 59.18Q326.20 58.74 326.21 58.07L326.21 58.07L324.27 58.07L324.27 57.20L327.07 57.20L327.07 61.23L326.21 61.23L326.11 60.14Q325.94 60.48 325.67 60.71L325.67 60.71Q325.30 61.04 324.81 61.20Q324.32 61.36 323.79 61.36Z" fill="#6b6e72"></path></svg>